<svg t="1612750337879" class="icon" viewBox="0 0 1024 1024" version="1.1" xmlns="http://www.w3.org/2000/svg" p-id="4970" width="200" height="200"><path d="M146.28352 414.47424V316.9536c0-26.92096 21.84192-48.76288 48.76288-48.76288s48.76288 21.84192 48.76288 48.76288v97.52064h97.52064c26.92096 0 48.76288 21.84192 48.76288 48.76288S368.25088 512 341.33504 512H243.80928v97.52576c0 26.92096-21.84192 48.75776-48.76288 48.75776s-48.76288-21.84192-48.76288-48.75776V512H48.76288C21.84192 512 0 490.15808 0 463.23712s21.84192-48.76288 48.76288-48.76288h97.52064zM656.12288 512c-107.81184 0-195.07712-87.2704-195.07712-195.0464s87.26528-195.0464 195.07712-195.0464c107.68384 0 195.05152 87.2704 195.05152 195.0464S763.81184 512 656.12288 512z m-341.36064 292.57216c0-129.7152 236.22144-195.0464 354.57024-195.0464 118.41024 0 354.66752 65.3312 354.66752 195.0464v67.05152a30.48448 30.48448 0 0 1-30.47424 30.47424H345.23648a30.48448 30.48448 0 0 1-30.47424-30.47424v-67.05152z" p-id="4971"></path></svg>