<svg t="1612750068904" class="icon" viewBox="0 0 1220 1024" version="1.1" xmlns="http://www.w3.org/2000/svg" p-id="3892" width="200" height="200"><path d="M518.774154 734.483692a39.384615 39.384615 0 1 1 66.048 42.929231l-97.004308 149.267692a39.384615 39.384615 0 0 1-69.553231-6.695384l-137.334153-340.952616a39.384615 39.384615 0 0 1 20.046769-50.491077l534.685538-246.232615c36.233846-16.659692 71.443692 24.851692 49.073231 57.895385l-209.447385 309.208615a39.384615 39.384615 0 0 1-65.220923-44.150154l130.244923-192.315077-372.302769 171.441231 94.995692 235.913846 55.768616-85.858461z m-370.215385-361.156923l193.969231 160.689231a39.384615 39.384615 0 1 1-50.215385 60.652308L39.384615 385.220923a39.384615 39.384615 0 0 1 15.005539-68.411077L1136.167385 30.168615a39.384615 39.384615 0 0 1 46.749538 52.460308L834.441846 972.8a39.384615 39.384615 0 0 1-61.715692 16.029538l-245.996308-202.476307a39.384615 39.384615 0 1 1 50.057846-60.809846l204.091077 167.975384 300.386462-767.291077L148.598154 373.366154z" fill="#8590a6" p-id="3893"></path></svg>